HIERARCHY
ROOT SimulationBone
{
	OFFSET 0.000000 0.000000 0.000000
	CHANNELS 6 Xposition Yposition Zposition Zrotation Yrotation Xrotation 
	JOINT Hips
	{
		OFFSET 0.000000 0.000000 0.000000
		CHANNELS 6 Xposition Yposition Zposition Zrotation Yrotation Xrotation 
		JOINT LeftUpLeg
		{
			OFFSET 0.103459 1.857842 10.548500
			CHANNELS 3 Zrotation Yrotation Xrotation
			JOINT LeftLeg
			{
				OFFSET 43.500008 -0.000042 -0.000011
				CHANNELS 3 Zrotation Yrotation Xrotation
				JOINT LeftFoot
				{
					OFFSET 42.372200 0.000000 0.000010
					CHANNELS 3 Zrotation Yrotation Xrotation
					JOINT LeftToe
					{
						OFFSET 17.300018 0.000008 -0.000006
						CHANNELS 3 Zrotation Yrotation Xrotation
						End Site
						{
							OFFSET 0.000000 0.000000 0.000000
						}
					}
				}
			}
		}
		JOINT RightUpLeg
		{
			OFFSET 0.103459 1.857820 -10.548510
			CHANNELS 3 Zrotation Yrotation Xrotation
			JOINT RightLeg
			{
				OFFSET 43.500038 -0.000004 -0.000004
				CHANNELS 3 Zrotation Yrotation Xrotation
				JOINT RightFoot
				{
					OFFSET 42.372261 -0.000019 0.000015
					CHANNELS 3 Zrotation Yrotation Xrotation
					JOINT RightToe
					{
						OFFSET 17.300003 -0.000001 0.000006
						CHANNELS 3 Zrotation Yrotation Xrotation
						End Site
						{
							OFFSET 0.000000 0.000000 0.000000
						}
					}
				}
			}
		}
		JOINT Spine
		{
			OFFSET 6.901967 -2.603730 -0.000004
			CHANNELS 3 Zrotation Yrotation Xrotation
			JOINT Spine1
			{
				OFFSET 12.588097 -0.000009 0.000008
				CHANNELS 3 Zrotation Yrotation Xrotation
				JOINT Spine2
				{
					OFFSET 12.343205 0.000003 -0.000002
					CHANNELS 3 Zrotation Yrotation Xrotation
					JOINT Neck
					{
						OFFSET 25.832899 -0.000006 0.000003
						CHANNELS 3 Zrotation Yrotation Xrotation
						JOINT Head
						{
							OFFSET 11.766611 0.000013 0.000001
							CHANNELS 3 Zrotation Yrotation Xrotation
							End Site
							{
								OFFSET 0.000000 0.000000 0.000000
							}
						}
					}
					JOINT LeftShoulder
					{
						OFFSET 19.745903 -1.480350 6.000102
						CHANNELS 3 Zrotation Yrotation Xrotation
						JOINT LeftArm
						{
							OFFSET 11.284125 -0.000002 -0.000024
							CHANNELS 3 Zrotation Yrotation Xrotation
							JOINT LeftForeArm
							{
								OFFSET 33.000050 0.000009 0.000033
								CHANNELS 3 Zrotation Yrotation Xrotation
								JOINT LeftHand
								{
									OFFSET 25.200012 0.000010 -0.000003
									CHANNELS 3 Zrotation Yrotation Xrotation
									End Site
									{
										OFFSET 0.000000 0.000000 0.000000
									}
								}
							}
						}
					}
					JOINT RightShoulder
					{
						OFFSET 19.746105 -1.480362 -6.000072
						CHANNELS 3 Zrotation Yrotation Xrotation
						JOINT RightArm
						{
							OFFSET 11.284140 -0.000003 -0.000004
							CHANNELS 3 Zrotation Yrotation Xrotation
							JOINT RightForeArm
							{
								OFFSET 33.000099 0.000013 0.000007
								CHANNELS 3 Zrotation Yrotation Xrotation
								JOINT RightHand
								{
									OFFSET 25.199776 0.000126 0.000428
									CHANNELS 3 Zrotation Yrotation Xrotation
									End Site
									{
										OFFSET 0.000000 0.000000 0.000000
									}
								}
							}
						}
					}
				}
			}
		}
	}
}
MOTION
Frames: 6
Frame Time: 0.033333
-53.946880 0.000000 504.194088 0.000000 -10.023107 0.000000 1.208020 90.282532 0.098043 94.057945 0.956174 -179.295830 -173.843368 1.919997 -173.061434 -17.553578 -7.488146 -8.360272 86.638907 6.826125 5.460530 21.454555 0.003109 0.000017 160.513093 -0.449402 174.006787 -58.590742 0.167826 8.567387 75.300684 -4.520146 5.646908 21.454553 -0.003091 -0.000001 6.539647 0.606119 -1.050663 3.055358 1.239316 -2.085361 2.737410 1.226568 -2.092808 -30.061981 20.085361 4.745213 1.345277 -21.313317 17.387298 -154.474905 -75.057318 -27.556036 -2.579005 62.648886 34.153958 -44.829458 -20.768351 2.000852 19.610981 17.610082 41.547566 -140.224234 76.693913 42.085980 -27.246755 -61.100728 -23.244114 -27.211697 14.861088 -1.169723 8.073408 6.078685 -52.723135 
-50.901015 0.000000 504.810763 0.000000 -9.350146 0.000000 0.996149 90.141258 0.137622 93.798120 1.935136 178.885706 -171.444592 1.279404 -172.745866 -16.175204 -7.352241 -9.333948 87.030926 7.396337 5.131523 21.454555 0.003108 0.000018 157.788735 -1.429903 173.320572 -50.302602 0.128020 7.821248 73.064002 -4.035143 5.273014 21.454557 -0.003091 0.000000 6.711483 1.074371 -1.416529 3.383929 2.189124 -2.802016 3.066018 2.172031 -2.815176 -30.256799 23.601736 5.970986 1.282017 -24.935262 20.860631 -156.109697 -76.486951 -25.854262 -3.918369 62.262208 32.886548 -47.626810 -21.138198 2.112829 19.497977 16.870967 43.920189 -141.504417 76.084243 40.808219 -28.703074 -60.212987 -15.909708 -25.670865 14.663402 -1.131342 11.700981 4.239091 -47.007151 
-47.877670 0.000000 505.410835 0.000000 -8.684073 0.000000 0.788844 90.157822 0.078874 93.143147 2.822677 177.103138 -169.299858 0.892195 -172.501741 -14.425529 -7.002350 -10.303540 86.316939 8.038937 4.829681 21.454555 0.003108 0.000017 156.195867 -2.400607 173.787456 -39.704822 0.055776 5.032219 69.673824 -1.906314 5.270219 21.454557 -0.003090 -0.000000 6.786885 1.511794 -1.716619 3.516733 3.074353 -3.388350 3.198758 3.053710 -3.406837 -29.992464 26.607379 7.359610 1.141167 -28.428139 24.179295 -158.456427 -77.249412 -23.445837 -3.877254 61.614815 31.623458 -50.537355 -21.188888 2.212197 18.739765 13.936275 46.339606 -141.601228 75.552315 40.732209 -29.533028 -59.513883 -10.302299 -25.224577 14.698133 -1.126425 15.539821 1.678714 -44.440619 
-44.872393 0.000000 505.990908 0.000000 -8.050637 0.000000 0.692611 90.049507 0.013729 92.596020 3.371567 175.707865 -167.870013 0.665206 -172.723859 -14.405325 -6.939034 -10.688712 85.898501 8.284641 4.546753 21.454560 0.003109 0.000017 156.074877 -3.104799 173.352223 -29.312809 1.147612 2.717478 68.338788 0.967644 8.558887 21.454557 -0.003090 -0.000001 6.863094 1.857333 -1.994800 3.650475 3.775858 -3.932889 3.332454 3.751918 -3.955596 -29.498450 28.752993 8.752409 1.036737 -31.255953 26.924350 -161.717515 -77.260019 -20.120311 -2.891147 60.799352 30.837621 -52.945608 -21.394178 2.309235 15.579293 9.564484 46.192808 -141.204394 75.444863 41.141627 -29.769864 -58.918769 -7.500261 -24.939162 14.742229 -1.124756 17.200534 -1.063232 -42.875382 
-41.882233 0.000000 506.548017 0.000000 -7.471684 0.000000 0.648727 89.852722 -0.065241 92.272993 3.534285 174.707228 -167.095305 0.800505 -174.027647 -16.169351 -6.652554 -10.176269 85.567196 7.880500 4.044856 21.454568 0.003108 0.000017 156.419597 -3.605697 174.296756 -23.048359 1.973872 0.051181 69.802730 3.173857 9.694324 21.454551 -0.003090 -0.000002 6.935573 2.034200 -2.180614 3.783118 4.137728 -4.297128 3.465123 4.111586 -4.322006 -28.638669 30.233429 9.720391 0.825004 -33.050080 28.704594 -164.897910 -77.422933 -16.875632 -2.075132 60.535659 29.733514 -53.928588 -21.201891 2.330969 10.460663 3.274757 44.358100 -141.185228 75.550334 41.156664 -29.149683 -58.624217 -7.389705 -24.365182 14.700551 -1.113269 16.531566 -2.843969 -40.612967 
-38.890959 0.000000 507.065971 0.000000 -6.970296 0.000000 0.616639 89.606903 -0.068217 92.417442 3.495794 174.306880 -167.228398 0.999604 -175.583454 -20.381769 -6.334148 -9.217784 84.697030 7.224090 3.691811 21.454568 0.003108 0.000017 157.257852 -4.081299 175.879010 -22.467103 1.901702 -2.121673 68.188504 3.851706 6.694699 21.454555 -0.003090 -0.000002 7.049706 2.065109 -2.208350 4.009426 4.204648 -4.347480 3.691406 4.178206 -4.372766 -27.965615 30.623638 9.981627 0.914625 -33.682371 29.051093 -167.580180 -77.659367 -14.140019 -2.455345 60.745401 28.949354 -53.541655 -21.282858 2.322711 4.893886 -3.591846 39.456644 -140.275229 75.692976 42.078449 -27.731729 -59.001647 -8.517447 -23.939786 14.592733 -1.100020 15.924021 -3.736788 -38.677381 
